<?xml version="1.0" standalone="no"?>
<!DOCTYPE svg PUBLIC "-//W3C//DTD SVG 1.1//EN" "http://www.w3.org/Graphics/SVG/1.1/DTD/svg11.dtd" >
<!--
2013-9-30: Created.
-->
<svg>
<metadata>
Created by iconfont
</metadata>
<defs>

<font id="iconfont" horiz-adv-x="1024" >
  <font-face
    font-family="iconfont"
    font-weight="500"
    font-stretch="normal"
    units-per-em="1024"
    ascent="896"
    descent="-128"
  />
    <missing-glyph />
    
    <glyph glyph-name="x" unicode="x" horiz-adv-x="1001"
d="M281 543q-27 -1 -53 -1h-83q-18 0 -36.5 -6t-32.5 -18.5t-23 -32t-9 -45.5v-76h912v41q0 16 -0.5 30t-0.5 18q0 13 -5 29t-17 29.5t-31.5 22.5t-49.5 9h-133v-97h-438v97zM955 310v-52q0 -23 0.5 -52t0.5 -58t-10.5 -47.5t-26 -30t-33 -16t-31.5 -4.5q-14 -1 -29.5 -0.5
t-29.5 0.5h-32l-45 128h-439l-44 -128h-29h-34q-20 0 -45 1q-25 0 -41 9.5t-25.5 23t-13.5 29.5t-4 30v167h911zM163 247q-12 0 -21 -8.5t-9 -21.5t9 -21.5t21 -8.5q13 0 22 8.5t9 21.5t-9 21.5t-22 8.5zM316 123q-8 -26 -14 -48q-5 -19 -10.5 -37t-7.5 -25t-3 -15t1 -14.5
t9.5 -10.5t21.5 -4h37h67h81h80h64h36q23 0 34 12t2 38q-5 13 -9.5 30.5t-9.5 34.5q-5 19 -11 39h-368zM336 498v228q0 11 2.5 23t10 21.5t20.5 15.5t34 6h188q31 0 51.5 -14.5t20.5 -52.5v-227h-327z" />
    

    
    <glyph glyph-name="right" unicode="&#58952;" d="M666.253935 377.75075100000004L273.260633-15.242552000000046C248.123793-40.37934700000005 248.127889-81.193761 273.303953-106.36982499999999 298.655566-131.72143899999992 339.279115-131.5653010000001 364.431226-106.41318999999999L802.13691 331.29249400000003C827.273706 356.42929000000004 827.269654 397.243704 802.093546 422.419768 800.919062 423.594251 799.711811 424.714017 798.474774 425.779066 796.02127 429.602816 793.123039 433.222923 789.780168 436.565749L352.074529 874.271432C326.922374 899.423544 286.298824 899.579681 260.947256 874.228068 235.771147 849.052004 235.767096 808.23759 260.903891 783.100794L666.253935 377.75075100000004Z"  horiz-adv-x="1024" />

    
    <glyph glyph-name="close" unicode="&#58884;" d="M940.935838 384.374726l404.828495 404.453769c11.7414 11.7414 18.361552 27.604782 18.361551 44.217614 0 16.612832-6.620151 32.476214-18.361551 44.217614-11.7414 11.7414-27.604782 18.361552-44.217614 18.361551-16.612832 0-32.476214-6.620151-44.217614-18.361551L852.50061 472.934862 447.547207 877.388631c-11.7414 11.7414-27.604782 18.361552-44.217614 18.361552-16.612832 0-32.476214-6.620151-44.217614-18.361552-11.7414-11.7414-18.361552-27.604782-18.361552-44.217614 0-16.612832 6.620151-32.476214 18.361552-44.217614l404.828494-404.32886-404.828494-404.703587c-17.986826-17.861918-23.357892-44.717248-13.615029-68.07514 9.617956-23.357892 32.476214-38.596731 57.832643-38.471822 16.113198 0 31.97658 6.120517 44.217614 18.236643l404.828494 404.453769 404.828495-404.578678c12.241034-12.241034 28.104416-18.236643 44.217614-18.236643 25.23152-0.124909 48.089778 15.11393 57.832642 38.471823 9.617956 23.357892 4.246889 50.213223-13.615028 68.07514l-404.703586 404.578678z m0 0"  horiz-adv-x="1706" />

    
    <glyph glyph-name="pics" unicode="&#58904;" d="M761.30417517 346.13790879c6.92009578 76.12105363 66.12536171 136.86411472 139.93971091 143.78421056v-28.44928082c-59.20526592-6.92009578-106.10813544-55.3607663-113.02823119-115.33492974h-26.91147972zM915.85298104 723.66757511c-210.67846974 0-382.91196683-176.07799084-382.91196684-392.90765891s171.46459359-392.90765881 382.91196684-392.90765887c56.89856727 0 111.49043017 12.30239062 162.23779915 36.90717757 133.01962092 64.58756068 217.59856555 197.60718154 219.90526424 349.08038551v1.537801 5.38229479c0.76889759 216.829668-171.46459359 392.90765881-382.14306339 392.90765891z m299.10191395-399.8277547c-2.30669857-95.34354003-46.13397188-182.22918906-120.71722452-238.35885284-51.51626662-39.21387612-113.79712877-59.97416353-178.38468943-59.97416359-165.31340122 0-299.10191977 137.63301814-299.10191981 306.79091321s134.55741616 306.7909132 299.10191981 306.79091323c165.31340122 0 299.10191977-137.63301814 299.10191395-306.79091323v-8.45789678zM1810.08313265 614.4838434200001v124.56172418c0 87.65454658-69.9698555 159.93110065-155.31770353 159.93110065h-299.10191985v73.04545739c0 88.42344418-69.9698555 159.93110065-155.31770337 159.93110074h-568.98565551c-85.34784802 0-155.31770351-71.50765644-155.31770347-159.93110074v-73.04545739h-299.10191973c-85.34784802 0-155.31770351-71.50765644-155.31770349-159.93110065v-932.67513008c0-88.42344418 69.9698555-159.93110065 155.31770349-159.93110648l1449.37562113 3.07560206c101.49473825 0 184.5358877 83.0411494 184.53588771 184.53588752V604.4881515c0 3.8444996 0 6.92009578-0.76890337 9.99569192z m-1660.82298865-741.98805008V688.29819845c0 53.05406767 43.05837574 96.88134096 95.3435458 96.88134106h333.70239294v120.7172245c0 53.05406767 43.05837574 96.88134096 95.34354586 96.88134109h482.86890399c53.05406767 0 95.34354003-43.05837574 95.34353994-96.88134109v-120.7172245h333.70239875c52.28517007 0 95.34354003-43.05837574 95.34353999-96.88134106v-806.57561065c0-59.20526592-47.67177286-106.87703298-106.87703296-106.87703309H245.37258744c-53.05406767 0.76889759-96.11244332 43.82727322-96.11244344 97.65023861zM1567.87978008-498.11377709z"  horiz-adv-x="1821" />

    
    <glyph glyph-name="pic-new" unicode="&#58905;" d="M715.21651454 422.98020468c6.52780967 71.80590649 62.37684994 129.10556747 132.00681978 135.63337711v-26.83654907c-55.84904025-6.52780967-100.09308186-52.22247748-106.62089146-108.79682804h-25.38592832zM861.00426417 779.10848486c-198.73553739 0-361.20546918-166.09648899-361.20546919-370.63452579s161.74461584-370.63452575 361.20546919-370.63452574c53.67310365 0 105.17026529 11.6049932 153.04086966 34.81498497 125.47901016 60.92622373 205.26334709 186.40523383 207.43928906 329.29173109v1.4506261 5.07718358c0.72531037 204.53803678-161.74461584 370.63452575-360.48015872 370.63452579z m282.14644256-377.16233547c-2.17593652-89.9387094-43.51873124-171.89898835-113.87401705-224.84677618-48.59591466-36.99092156-107.34620188-56.57435062-168.27242551-56.5743506-155.94212201 0-282.14644258 129.83088332-282.14644256 289.39956261s126.92963095 289.39956263 282.14644256 289.39956262c155.94212201 0 282.14644258-129.83088332 282.14644256-289.39956262v-7.97843583zM163.97925421-237.05388921999997c-80.50965274 0-146.51305998 67.45403341-146.51306544 150.86493858V793.61473037c0 83.41089965 66.00340725 150.86493307 146.51306544 150.8649331h282.14643701v68.90465959c0 83.41089965 66.00340725 150.86493307 146.51306547 150.86493317h536.0057045c80.50965274 0 146.51305998-67.45403341 146.51305984-150.86493317v-68.90465959H1557.30396365c80.50965274 0 146.51305998-67.45403341 146.51305998-150.8649331v-117.50057425c0.72531037-2.90124692 0.72531037-6.52780967 0.72531582-9.42905664v-260.387077c0-33.36435882-27.56186493-60.92622373-60.92622373-60.92622375-31.91373806 0-58.75028712 25.38592837-60.92622365 57.29966099v343.07266626c0 50.04654087-40.61748432 91.38933553-89.93871487 91.3893356h-314.78548562v113.87401151c0 50.04654087-40.61748432 91.38933553-89.9387147 91.38933562h-455.49605167c-50.04654087 0-89.9387094-40.61748432-89.93870938-91.38933562v-113.87401151h-314.78549099c-50.04654087 0-89.9387094-40.61748432-89.93870937-91.3893356v-770.28154254c0-50.04654087 40.61748432-91.38933553 89.93870937-91.3893356H1019.12232272c32.63904842-0.72531037 59.47559761-27.56186493 59.4755975-60.92622373 0-32.63904842-26.83654906-60.2009134-59.4755975-60.92622364H163.97925421zM1476.06900051-373.41257668000003c-31.18842226 0-56.57435062 25.38592837-56.57435061 56.57435052v557.76507003c0 31.18842226 25.38592837 56.57435062 56.57435061 56.57435058h7.97843047c31.18842226 0 56.57435062-25.38592837 56.57435057-56.57435058v-557.76507003c0-31.18842226-25.38592837-56.57435062-56.57435057-56.57435052h-7.97843047zM1201.17567801-98.51925965999999c-31.18842226 0-56.57435062 25.38592837-56.57435055 56.57435057v7.97843591c0 31.18842226 25.38592837 56.57435062 56.57435055 56.57435058h557.7650754c31.18842226 0 56.57435062-25.38592837 56.57435066-56.57435058v-7.97843591c0-31.18842226-25.38592837-56.57435062-56.57435066-56.57435057h-557.7650754z"  horiz-adv-x="1821" />

    
    <glyph glyph-name="checkbox" unicode="&#58893;" d="M1319.08430595-307.77887054999997H497.59436959c-156.6801613 0-284.12433888 127.44417757-284.12433889 284.12433889V797.83540469c0 156.6801613 127.44417757 284.12433888 284.12433889 284.12433891h821.48993636c156.6801613 0 284.12433888-127.44417757 284.12433891-284.12433891v-821.48993635c0-156.6801613-127.44417757-284.12433888-284.12433891-284.12433889zM497.59436959 1061.37102389c-145.35636416 0-263.5356192-118.1792535-263.53561764-263.5356192v-821.48993635c0-145.35636416 118.1792535-263.5356192 263.53561764-263.53561765h821.48993636c145.35636416 0 263.5356192 118.1792535 263.53561919 263.53561765V797.83540469c0 145.35636416-118.1792535 263.5356192-263.53561919 263.5356192H497.59436959z"  horiz-adv-x="1821" />

    
    <glyph glyph-name="checkbox-checked" unicode="&#58894;" d="M1347.22057716 1131.10464357H467.07500953c-167.58293367 0-303.43683244-135.85389879-303.43683243-303.43683244v-880.14556764c0-167.58293367 135.85389879-303.43683244 303.43683243-303.43683243h880.14556763c167.58293367 0 303.43683244 135.85389879 303.43683073 303.43683243V827.66781113c0 167.58293367-135.85389879 303.43683244-303.43683073 303.43683244z m115.52050171-490.2359431L813.18962797-15.832954459999996c-0.22344336-0.22344336-0.44688839-0.22344336-0.67033174-0.44688837-0.22344336-0.22344336-0.22344336-0.44688839-0.44688838-0.67033175-5.13921054-4.91576548-11.61908285-8.04398081-17.65206845-11.61908282-2.90477029-1.78755186-5.36265388-4.24543375-8.71431254-5.58609893-9.83153267-3.79854706-20.10995203-5.80954226-30.38837142-5.80954057s-20.78028378 2.0109952-30.61181645 6.03298562c-3.35165866 1.34066346-5.80954226 4.24543375-8.9377559 5.80954058-6.03298562 3.35165866-12.28941459 6.47987401-17.4286251 11.61908453-0.22344336 0.22344336-0.22344336 0.44688839-0.44688838 0.67033171-0.22344336 0.22344336-0.44688839 0.22344336-0.67033174 0.44688674l-319.52479409 328.46254994c-31.28214818 32.17592326-30.61181645 83.56802349 1.5641085 114.62672666 32.17592326 31.05870314 83.34457844 30.61181645 114.62672662-1.56410684l261.87626322-269.02646895L1347.44402048 755.04854042c31.50559152 31.9524799 82.89769174 32.17592326 114.62672664 0.67033174 31.9524799-31.50559152 32.17592326-82.89769174 0.67033174-114.85017169z"  horiz-adv-x="1821" />

    
    <glyph glyph-name="invisible" unicode="&#58880;" d="M1014.5792 383.1808c-0.4096 0.8192-42.1888 86.016-124.7232 169.984-25.8048 26.2144-52.8384 49.5616-80.6912 70.0416l-39.936-39.936c97.4848-68.8128 159.1296-160.768 183.0912-201.3184-40.5504-68.1984-189.0304-283.8528-440.32-283.8528-73.728 0-136.8064 14.7456-190.464 37.4784l-41.3696-41.3696c70.4512-33.792 148.2752-50.9952 231.8336-50.9952 77.2096 0 151.7568 17.8176 221.5936 52.8384 55.7056 28.0576 108.544 67.1744 156.8768 116.1216 82.3296 83.3536 123.6992 167.936 124.1088 168.7552l0.6144 1.024-0.6144 1.2288zM70.2464 380.31359999999995C112.0256 449.536 263.9872 668.4672 512 668.4672c63.488 0 120.4224-13.9264 170.5984-36.0448l41.7792 41.7792c-67.1744 32.5632-138.6496 49.152-212.5824 49.152-75.776 0-149.504-17.8176-218.7264-53.0432-55.5008-28.0576-108.3392-67.3792-157.0816-116.5312C52.8384 470.016 9.8304 385.2288 9.4208 384.4096l-0.4096-1.024 0.4096-1.024c0.4096-0.8192 33.1776-85.8112 111.0016-169.5744 23.3472-25.1904 48.5376-47.7184 75.1616-67.584l39.1168 39.1168c-94.6176 67.7888-145.408 156.672-164.4544 195.9936zM622.592 383.38559999999995c0-64.1024-46.4896-110.7968-110.592-110.7968-16.384 0-31.5392 3.072-45.056 8.6016l-40.96-40.96c25.1904-14.7456 54.6816-22.528 86.016-22.528 46.08 0 88.2688 16.9984 118.784 47.9232 30.1056 30.5152 46.6944 72.2944 46.6944 117.76 0 31.1296-7.7824 60.6208-22.528 86.016l-40.96-40.96c5.5296-13.7216 8.6016-28.8768 8.6016-45.056zM346.5216 383.38559999999995c0-25.6 5.3248-49.9712 15.1552-71.8848l43.008 43.008c-2.2528 9.0112-3.2768 18.8416-3.2768 28.8768 0 64.1024 46.4896 110.7968 110.592 110.7968 10.0352 0 19.8656-1.2288 28.8768-3.2768l43.008 43.008c-21.9136 10.0352-46.2848 15.1552-71.8848 15.1552-94.4128-0.2048-165.4784-71.2704-165.4784-165.6832zM889.856 733.3888L152.3712-4.096000000000004c-10.6496-10.6496-28.0576-10.6496-38.912 0-10.6496 10.6496-10.6496 28.0576 0 38.912l737.4848 737.28c10.6496 10.6496 28.0576 10.6496 38.912 0 10.6496-10.6496 10.6496-28.0576 0-38.7072z"  horiz-adv-x="1024" />

    
    <glyph glyph-name="visible" unicode="&#58881;" d="M1014.5792 383.1808c-0.4096 0.8192-42.1888 86.016-124.7232 169.984-48.3328 49.3568-101.1712 88.6784-156.8768 116.9408-69.632 35.2256-143.9744 53.248-220.9792 53.248-75.776 0-149.504-17.8176-218.7264-53.0432-55.5008-28.0576-108.3392-67.3792-157.0816-116.5312C53.0432 470.016 10.0352 385.2288 9.6256 384.4096l-0.4096-1.024 0.4096-1.024c0.4096-0.8192 33.1776-85.8112 111.0016-169.5744 45.8752-49.152 98.0992-88.4736 155.2384-116.5312 71.4752-35.2256 150.9376-53.0432 236.3392-53.0432 77.2096 0 151.7568 17.8176 221.5936 52.8384 55.7056 28.0576 108.544 67.1744 156.8768 116.1216 82.3296 83.3536 123.6992 167.936 124.1088 168.7552l0.6144 1.024-0.8192 1.2288zM512 98.0992c-282.4192 0-408.7808 214.4256-441.7536 282.2144C112.0256 449.536 263.9872 668.4672 512 668.4672c250.2656 0 399.36-217.4976 440.32-286.3104-40.5504-68.4032-189.0304-284.0576-440.32-284.0576zM630.784 501.1456c-30.5152 30.9248-72.704 47.9232-118.784 47.9232-94.4128 0-165.4784-71.2704-165.4784-165.6832 0-45.4656 16.5888-87.2448 46.6944-117.76 30.5152-30.9248 72.704-47.9232 118.784-47.9232s88.2688 16.9984 118.784 47.9232c30.1056 30.5152 46.6944 72.2944 46.6944 117.76 0 45.2608-16.5888 87.04-46.6944 117.76z m-118.784-228.5568c-64.1024 0-110.592 46.4896-110.592 110.7968 0 64.1024 46.4896 110.7968 110.592 110.7968s110.592-46.4896 110.592-110.7968c0-64.3072-46.4896-110.7968-110.592-110.7968z"  horiz-adv-x="1024" />

    
    <glyph glyph-name="appname" unicode="&#58882;" d="M120.0128 482.5088v-14.9504h49.3568v-12.6976H51.4048v-131.4816H11.4688v144.1792h68.608v14.9504h39.936zM249.2416 482.9184l-5.3248-17.6128h95.0272v-12.9024h-98.9184l-14.336-46.6944h15.36v32.768H280.576v-32.768h53.0432v-12.9024H280.576V338.94399999999996c0-8.8064-7.168-15.9744-15.9744-15.9744h-36.864v12.9024h8.192c2.4576 0 4.9152 2.2528 4.9152 4.7104v52.224H183.296l19.0464 59.5968H179.2v12.9024h27.2384l5.5296 17.6128h37.2736z m-16.1792-100.1472l-17.6128-57.9584H179.8144l17.6128 57.9584h35.6352z m90.7264 0l14.9504-57.9584h-35.84l-14.9504 57.9584h35.84zM400.5888 482.9184v-17.2032h12.0832l-15.5648-44.6464v-97.8944h-33.792v54.272h-15.7696l25.6 76.8h-25.3952v11.264h14.5408v17.2032h38.2976z m15.36-60.2112v-99.9424h-13.312v99.9424h13.312z m8.3968 10.0352h20.8896v49.3568h38.5024v-49.3568h21.0944v-12.6976h-21.0944v-83.5584h23.7568v-12.9024h-85.8112v12.9024h23.552v83.5584h-20.8896v12.6976zM555.4176 336.4864h118.784v-12.9024h-155.8528V478.208h155.8528v-12.9024h-118.784v-128.8192z m7.9872 120.2176l35.84-55.9104-35.84-55.7056h36.0448l17.8176 27.648 17.8176-27.648h36.0448l-35.84 55.7056 35.84 55.9104h-36.0448l-17.8176-27.8528-17.8176 27.8528h-36.0448zM712.9088 482.9184l-1.8432-20.6848h41.3696v-12.9024h-11.6736v-47.7184h14.5408v-12.9024h-12.4928l10.8544-65.7408h-25.1904l-5.5296 34.6112-8.8064-34.6112h-25.3952l16.7936 65.7408H686.08v12.9024h24.9856v47.7184h-1.4336l-2.4576-27.4432h-22.7328l5.3248 61.0304h23.1424z m49.3568-1.4336h79.6672v-12.9024h-25.8048l-7.168-23.3472h35.84v-12.9024H833.536l11.264-42.3936h-32.3584l-9.6256 35.4304-11.0592-35.4304h-32.3584l13.1072 42.3936h-13.1072v12.9024h17.2032l7.168 23.3472h-21.504v12.9024z m-2.8672-158.5152l5.9392 61.6448h32.3584l-5.9392-61.6448h-32.3584z m49.7664 0v61.6448h32.3584v-61.6448h-32.3584zM859.9552 475.3408h146.8416v-12.9024h-37.4784v-53.248h33.5872v-12.9024h-33.5872v-56.7296h43.8272v-12.9024h-159.744v12.9024h12.6976v91.136h39.936v-91.136h23.1424v122.88h-69.2224v12.9024z"  horiz-adv-x="1024" />

    
    <glyph glyph-name="arrow-left" unicode="&#58883;" d="M676.139728 783.966401L265.134828 380.27271499999995 676.139728-23.420972000000006c22.076998-22.076998 22.076998-66.087638 0-88.021279-22.076998-22.076998-66.087638-22.076998-88.02128 0L140.414122 328.95086100000003s-7.311214 0-7.311214 7.311214C118.337124 343.57328900000005 111.02591 365.65028700000005 111.02591 380.27271499999995s7.311214 36.699426 22.076998 44.010639c0 0 7.311214 0 7.311214 7.311214L588.118448 879.4422509999999c22.076998 22.076998 66.087638 22.076998 88.02128 0 29.388212-29.388212 29.388212-66.087638 0-95.47585z m0 0"  horiz-adv-x="1024" />

    
    <glyph glyph-name="follow" unicode="&#58886;" d="M1241.534604 172.81993799999998H1032.428062v208.94704c0 7.17757-5.901558 13.079128-13.079127 13.079128h-52.316511c-7.17757 0-13.079128-5.901558-13.079128-13.079128v-209.106542h-208.947041c-7.17757 0-13.079128-5.901558-13.079127-13.079128v-52.31651c0-7.17757 5.901558-13.079128 13.079127-13.079128h209.106543v-209.106542c0-7.17757 5.901558-13.079128 13.079127-13.079128h52.316511c7.17757 0 13.079128 5.901558 13.079128 13.079128V94.34517100000005h209.106542c7.17757 0 13.079128 5.901558 13.079128 13.079128v52.316511c-0.159502 7.17757-6.061059 13.079128-13.23863 13.079128zM425.524636 817.525234c75.76324 0 147.698442-29.348287 202.566978-82.302804l27.434268-26.796262 27.434268 26.796262c54.868536 52.954517 126.803738 82.302804 202.566978 82.302804 160.139564 0 290.77134-130.631776 290.771339-290.77134 0-23.446729-4.625545-47.690966-13.079127-73.211215 0 0-3.987539-11.803115-3.987539-18.342679 0-21.53271 17.704673-39.237383 39.237383-39.237383 18.980685 0 32.697819 18.980685 38.599377 32.059813 5.263551 11.803115 18.342679 66.033645 18.342679 98.571963C1255.251738 730.756386 1090.008125 896 886.165134 896 801.948312 896 721.559526 867.927726 656.163888 815.611215 590.768249 867.927726 510.538966 896 426.162642 896 222.319651 896 57.076037 730.756386 57.076037 526.9133959999999c0-259.987539 425.231153-561.923988 554.746418-647.416823 0.638006-0.638006 1.914019-1.276012 1.914019-1.276012s13.079128-5.901558 20.256697-5.901558c21.53271 0 39.237383 17.704673 39.237384 39.237383 0 13.717134-7.17757 26.158255-18.34268 32.69782-162.691589 104.47352-520.772586 376.264174-520.772585 582.818691C134.753296 686.893458 265.544573 817.525234 425.524636 817.525234z"  horiz-adv-x="1538" />

    
    <glyph glyph-name="admin" unicode="&#58887;" d="M510.1568 330.3424c-146.8416 0-262.3488 115.3024-262.3488 262.3488C247.808 739.5328 363.1104 855.04 510.1568 855.04c146.8416 0 262.3488-115.5072 262.3488-262.3488 0-147.0464-115.5072-262.3488-262.3488-262.3488z m0 52.4288c115.5072 0 209.92 94.4128 209.92 209.92S625.4592 802.4064 510.1568 802.4064 300.2368 707.9936 300.2368 592.6912s94.4128-209.92 209.92-209.92zM798.72-89.29280000000006c-73.5232 0-131.072 57.7536-131.072 131.072s57.7536 131.072 131.072 131.072c73.5232 0 131.072-57.7536 131.072-131.072s-57.7536-131.072-131.072-131.072z m0 52.4288c41.984 0 78.6432 36.6592 78.6432 78.6432s-36.6592 78.6432-78.6432 78.6432-78.6432-36.6592-78.6432-78.6432c-0.2048-41.984 36.6592-78.6432 78.6432-78.6432z m0 0M772.5056 435.2h52.4288v-262.3488h-52.4288V435.2z m52.4288 0H929.792v-52.4288h-104.8576V435.2z m0-104.8576H929.792v-52.4288h-104.8576v52.4288z m0 0M510.1568 382.7712L462.848 325.0176C279.3472 304.12800000000004 142.9504 151.96159999999998 142.9504-36.86400000000003H90.5216v52.4288h5.3248c26.0096 204.5952 199.2704 367.2064 414.3104 367.2064z m0 0L462.848 325.0176C279.3472 304.12800000000004 142.9504 151.96159999999998 142.9504-36.86400000000003H90.5216v52.4288h5.3248c26.0096 204.5952 199.2704 367.2064 414.3104 367.2064z m0 0"  horiz-adv-x="1024" />

    
    <glyph glyph-name="clock" unicode="&#58898;" d="M637.11036481 364.4158642l1.23760513-1.23760513M656.75734795 885.29296875C383.09188903 885.29296875 160.63234795 663.45222926 160.63234795 389.16796875c0-274.4389614 221.84073948-496.125 496.125-496.125 274.4389614 0 496.125 221.84073948 496.125 496.125C1152.88234795 663.45222926 930.57750679 885.29296875 656.75734795 885.29296875z m147.7391248-643.86412576c-12.06665147-12.06665147-33.57004231-11.44784891-47.49310052 2.47521122l-119.11950494 119.11950397c-7.58033167 6.34272653-12.68545404 16.55297031-12.68545307 27.84611738V687.58553221c0 19.02818058 14.54186174 34.80764744 31.71363364 34.80764745s31.71363461-15.77946686 31.71363462-34.80764745v-285.73210942l114.01438256-113.39558c13.14955572-13.3042566 14.38716085-34.96234832 1.85640771-47.0289998z m0 0"  horiz-adv-x="1313" />

    
    <glyph glyph-name="location" unicode="&#58899;" d="M594.14231002 955.67069859C362.68077945 955.67069859 174.86378779 772.80008652 174.86378779 547.3033110700001c0-389.6002368 419.27852224-734.97400966 419.27852223-734.97400966s419.27852224 360.21291502 419.27852224 734.97400966C1013.27534988 772.80008652 825.45835822 955.67069859 594.14231002 955.67069859z m0-647.83041646c-126.27819519 0-228.69737546 102.41918138-228.69737657 228.69737548C365.44493345 662.67037155 467.86411485 765.08955181 594.14231002 765.08955181c126.27819519 0 228.69737546-102.41918138 228.69737546-228.69737547-0.14548126-126.13271282-102.56466264-228.55189421-228.69737546-228.55189421z m0 0"  horiz-adv-x="1180" />

    
    <glyph glyph-name="index-arrow" unicode="&#58900;" d="M6.35335111 537.0920960000001h833.50141156c11.88386133 0 23.30168889-4.42732089 32.15633066-12.11687822l133.75169422-112.31414045c15.84514845-13.98101333 16.07816533-38.44778667 0.46603378-52.66181688l-132.35359288-116.04241067c-9.08765867-8.15559111-20.73850311-12.81592889-32.85538134-12.81592889H6.35335111V537.0920960000001z"  horiz-adv-x="1024" />

    
    <glyph glyph-name="submit" unicode="&#58901;" d="M511.45628139 889.47120784c-113.09349043 0-222.92466873-46.21608979-301.2201622-127.77389547-80.47036834-83.18896172-121.249271-193.56385869-117.44324002-319.16287942 8.6994993-276.75282048 389.8463109-537.73779845 406.15787194-548.61217247 3.80603088-2.17487478 7.61206193-3.80603088 11.96181145-3.80603092s8.6994993 1.08743744 11.96181153 3.80603092c16.31156112 10.87437409 398.00209149 271.85935209 406.15787197 548.61217247 3.80603088 125.59902064-36.42915311 235.9739176-117.44324008 319.16287942-77.20805598 81.55780558-187.03923423 127.77389553-300.13272459 127.77389547z m374.62218708-445.30561873c-2.71859355-95.69449191-57.09046392-201.71963923-160.39701774-315.35684841-82.645243-90.80102354-173.98998536-160.39701772-209.33170105-186.49551555l-4.89346829-3.26231228-4.89346846 3.26231228c-35.34171574 25.55477914-126.68645805 95.69449191-209.33170108 186.49551555-103.8502725 113.63720909-157.67842424 220.20607523-160.39701782 315.35684841-3.26231218 113.63720909 32.62312225 213.13773202 104.93771 287.62719451 70.68343153 72.85830634 169.09651702 114.18092786 270.22819597 114.18092788s199.54476444-41.86634021 270.22819597-114.18092788c71.22715026-74.48946244 107.6563034-173.98998536 103.8502725-287.62719451zM703.3889839 446.88418259l-178.33973501 178.33973501c-3.80603088 3.80603088-9.243218 6.52462448-14.68040495 6.52462446-5.43718707 0-10.33065538-2.17487478-14.68040506-6.52462446L319.52357865 449.05905748c-3.80603088-3.80603088-6.52462448-9.243218-6.52462434-14.68040507 0-5.43718707 2.17487478-10.33065538 6.52462434-14.68040496 4.34974968-4.34974968 8.6994993-6.52462448 14.68040509-6.52462451s9.78693665 1.63115606 14.68040496 6.52462451l140.82314445 140.82314439v-333.29956574c0-12.50553022 8.15578053-20.66131079 20.66131079-20.66131076s20.66131079 8.15578053 20.6613107 20.66131076v333.29956574l142.99801925-142.99801921c4.34974968-4.34974968 8.6994993-6.52462448 14.68040492-6.52462444s9.78693665 1.63115606 14.68040509 6.52462444c8.6994993 8.6994993 8.6994993 21.20502945 0 29.36080996z"  horiz-adv-x="1024" />

    
    <glyph glyph-name="ID" unicode="&#58902;" d="M511.52608183 772.1389805700001c-214.21101249 0-388.13898057-173.92796809-388.13898058-388.13898057s173.92796809-388.13898057 388.13898058-388.13898057 388.13898057 173.92796809 388.13898056 388.13898057c0 214.68493063-173.92796809 388.13898057-388.13898056 388.13898057z m0-744.05152563c-196.67604022 0-355.91254506 159.23650486-355.91254506 355.91254506 0 196.67604022 159.23650486 355.91254506 355.91254506 355.91254506 196.67604022 0 355.91254506-159.23650486 355.91254506-355.91254506 0-196.20212205-159.23650486-355.91254506-355.91254506-355.91254506z m0 0M298.73682386 579.72820389h64.45287102v-391.93032594H298.73682386zM748.01124827 478.30971568c-10.42619971 27.01333565-26.0654993 49.76140777-46.91789878 67.29638001-16.11321775 13.74362691-35.54386267 23.22199026-58.29193478 28.43509017-16.11321775 3.79134534-38.86128988 5.68701803-68.71813455 5.68701803h-137.43626906v-391.93032594h143.59720523c23.22199026 0 44.07438974 2.36959085 62.55719838 6.6348544 18.48280862 4.73918172 34.12210818 11.37403606 47.39181688 19.90456311 13.26970874 8.53052707 25.11766294 20.85239943 36.0177809 36.01778081 10.9001179 15.16538144 19.90456309 34.12210818 27.01333564 57.34409848 7.10877253 22.7480721 10.42619971 48.8135714 10.42619972 78.19649792-0.47391817 34.59602637-5.68701803 65.40070735-15.63929958 92.41404301z m-246.91136617 42.65263521h72.03556171c28.43509013 0 49.76140777-2.36959085 62.08328018-7.10877253 17.06105409-6.63485439 31.75251732-19.90456309 43.60047156-39.8091262 12.32187239-19.90456309 18.48280862-49.28748959 18.48280858-87.20094314 0-27.48725381-3.31742719-51.18316226-9.47836336-70.61380719-6.16093618-18.95672674-15.16538144-34.12210818-26.06549931-45.02222609-7.5826907-7.5826907-18.00889044-13.74362691-31.27859917-18.00889045-13.26970874-4.26526351-32.22643549-6.63485439-56.39626213-6.63485437h-73.45731622v274.39861997z"  horiz-adv-x="1024" />

    
    <glyph glyph-name="phone" unicode="&#58903;" d="M511.51205039 775.47043918c-214.21101249 0-388.13898057-173.92796809-388.13898057-388.13898056s173.92796809-388.13898057 388.13898057-388.13898058 388.13898057 173.92796809 388.13898056 388.13898058c0 214.68493063-173.92796809 388.13898057-388.13898056 388.13898056z m0-744.05152561c-196.67604022 0-355.91254506 159.23650486-355.91254507 355.91254505 0 196.67604022 159.23650486 355.91254506 355.91254507 355.91254507 196.67604022 0 355.91254506-159.23650486 355.91254508-355.91254507 0-196.67604022-159.71042301-355.91254506-355.91254508-355.91254505z m0 0M627.14808367 600.5946347500001c-31.75251732 16.11321775-74.87907073 48.8135714-99.99673367-20.85239944-25.59158114-69.1920527 0.94783635-77.72257977 33.64818999-94.30971569 22.7480721-11.84795422 1.42175453-67.77029817-23.22199032-118.00562411-25.11766294-50.7092441-56.39626212-101.4184882-79.14433423-89.57053397-32.70035366 16.58713593-54.97450763 33.17427185-94.78363381-28.9090083-39.33520804-62.08328016 11.84795422-77.72257977 43.60047155-93.83579752 36.49169903-18.48280862 130.32749654 41.70479886 197.62387652 178.1932316 67.29638001 136.48843274 59.23977115 248.80703883 22.27415397 267.28984743z m0 0"  horiz-adv-x="1024" />

    
    <glyph glyph-name="search" unicode="&#59371;" d="M825.344 126.36159999999995l-135.168 135.168 0.8192 1.024c36.2496 49.152 55.296 107.52 55.296 168.5504 0 157.0816-127.7952 284.8768-284.8768 284.8768-157.0816 0-284.8768-127.7952-284.8768-284.8768s127.7952-284.8768 284.8768-284.8768c61.0304 0 119.3984 19.0464 168.5504 55.296l1.024 0.8192 0.8192-0.8192 134.3488-134.3488c7.9872-7.9872 18.432-12.288 29.696-12.288s21.7088 4.3008 29.696 12.288c16.1792 16.1792 16.1792 42.8032-0.2048 59.1872z m-363.9296 87.4496c-119.808 0-217.088 97.4848-217.088 217.088 0 119.808 97.4848 217.088 217.088 217.088 119.808 0 217.088-97.4848 217.088-217.088s-97.4848-217.088-217.088-217.088z"  horiz-adv-x="1024" />

    
    <glyph glyph-name="female" unicode="&#58888;" d="M941.6704-12.288000000000011L901.12 122.26559999999995c-22.9376 81.1008-87.04 144.1792-168.5504 165.6832l-11.4688 3.4816h-4.7104c-15.36 3.4816-31.3344-1.4336-42.1888-12.6976-38.0928-50.3808-96.6656-81.1008-159.9488-84.3776-63.488 3.072-122.4704 33.5872-161.5872 83.7632-10.8544 12.288-27.4432 17.408-43.2128 13.312h-4.7104l-11.0592-3.4816c-81.92-21.504-146.2272-84.7872-169.1648-166.2976l-42.8032-135.168c-4.3008-16.1792-1.024-33.3824 9.216-46.6944 10.24-13.5168 26.4192-21.2992 43.2128-20.6848h755.9168c16.9984 0.4096 32.768 8.6016 42.8032 22.528 10.0352 13.1072 13.312 30.1056 8.8064 46.08z m-52.0192-15.5648c-3.2768-4.3008-8.3968-6.9632-13.9264-6.9632H148.2752c-4.9152-0.2048-9.6256 1.8432-12.6976 5.7344-3.2768 4.3008-4.7104 9.8304-3.4816 14.9504l39.3216 125.3376c20.6848 65.7408 74.3424 115.9168 141.5168 131.6864l9.8304 2.8672h3.4816c2.6624 1.2288 5.5296 1.2288 7.9872 0 43.8272-54.0672 108.3392-86.8352 177.7664-90.112 69.8368 2.2528 135.168 34.6112 178.9952 88.8832 2.6624 1.2288 5.9392 1.2288 8.6016 0h3.4816l10.4448-2.8672c66.3552-16.1792 119.1936-66.3552 139.264-131.6864l37.4784-123.4944c2.4576-4.5056 2.4576-9.8304 0-14.336h-0.6144z m0 0M166.7072 367.00160000000005l24.7808-6.3488c68.1984-16.7936 137.8304-27.8528 207.872-33.5872 29.9008-32.1536 71.68-50.7904 115.5072-52.0192 44.032 1.024 85.8112 20.0704 115.5072 52.6336 68.1984 5.9392 135.5776 16.9984 202.1376 32.9728l24.7808 6.3488c10.4448 3.4816 18.8416 11.264 23.1424 21.2992 4.9152 9.8304 4.9152 21.2992 0 31.1296l-66.9696 115.5072c-22.528 39.3216-40.96 80.896-54.8864 124.1088l-9.8304 10.4448c-23.7568 77.2096-84.7872 137.216-162.2016 159.9488l-11.0592 4.096c-43.2128 12.0832-89.088 12.0832-132.3008 0l-9.8304-3.4816c-78.0288-22.3232-139.4688-82.7392-162.816-160.5632l-4.096-14.9504c-14.5408-43.2128-33.9968-84.7872-57.7536-123.4944l-66.3552-115.5072c-5.3248-10.4448-5.3248-22.528 0-32.9728 5.3248-8.6016 14.336-14.336 24.3712-15.5648z m346.5216-48.3328c-80.2816 0-151.3472 98.0992-158.72 214.8352 125.3376-24.1664 189.44 26.624 213.6064 65.3312 25.8048-29.4912 65.7408-42.5984 104.0384-33.9968v-10.4448c-0.2048-125.5424-74.752-235.7248-158.9248-235.7248zM254.976 517.12c22.9376 38.912 41.1648 80.2816 54.272 123.4944l3.4816 16.1792c17.408 61.2352 67.1744 108.1344 129.4336 121.856l9.216 3.4816c39.3216 9.8304 80.2816 9.8304 119.6032 0l11.0592-3.4816c59.392-15.1552 105.8816-61.0304 121.856-120.0128l6.3488-20.6848c13.5168-41.984 31.5392-82.5344 53.6576-120.6272l63.488-106.2912-24.1664-5.7344c-48.9472-12.0832-98.7136-21.0944-148.8896-26.624 35.84 54.4768 54.6816 118.3744 54.272 183.7056 0.8192 11.264 0.8192 22.7328 0 33.9968-1.024 4.9152-3.8912 9.216-7.9872 12.0832-4.5056 1.6384-9.4208 1.6384-13.9264 0-37.4784-16.1792-81.3056-0.8192-100.5568 35.2256-3.4816 5.3248-9.6256 8.6016-16.1792 7.9872-6.7584 0.6144-13.312-3.072-16.1792-9.216-18.432-30.5152-71.0656-100.9664-215.4496-65.3312-5.3248 1.2288-10.8544-0.2048-14.9504-3.4816-4.096-3.072-6.5536-7.9872-6.3488-13.312 0-64.9216 18.6368-128.4096 53.6576-183.0912-52.0192 5.5296-103.8336 14.5408-154.8288 26.624l-23.7568 6.3488 62.8736 106.9056z m0 0"  horiz-adv-x="1024" />

    
    <glyph glyph-name="male" unicode="&#58889;" d="M512.2048 274.6368c125.952 0 240.0256 155.648 240.0256 332.3904C752.2304 738.304 645.7344 844.8 514.4576 844.8S276.6848 738.304 276.6848 607.0272c-2.4576-176.7424 108.7488-332.3904 235.52-332.3904z m0 517.7344c81.92-0.2048 153.3952-55.7056 173.8752-135.168-38.2976-8.6016-77.824 7.7824-98.7136 40.96-0.6144 4.3008-2.8672 8.192-6.3488 10.8544-8.6016 4.096-18.6368 0.4096-22.7328-7.9872-27.8528-56.9344-114.0736-75.776-220.7744-56.9344 15.5648 84.5824 88.4736 146.6368 174.6944 148.2752z m-187.8016-189.44c28.0576-5.9392 56.7296-8.8064 85.6064-9.216 61.2352-3.8912 121.2416 18.8416 164.2496 62.6688 25.1904-28.8768 61.44-45.6704 99.7376-46.2848 8.192 0.2048 16.384 1.024 24.576 2.8672 0.2048-3.4816 0.2048-6.7584 0-10.24 0-147.6608-87.8592-277.0944-187.5968-277.0944-99.7376 0.2048-186.5728 129.6384-186.5728 277.2992z m0 0M954.5728-10.649599999999964l-42.1888 138.0352c-23.3472 83.968-89.4976 149.0944-173.8752 171.008l-11.8784 3.8912h-4.5056c-15.9744 3.6864-32.5632-1.2288-43.8272-13.1072-39.7312-51.8144-100.1472-83.5584-165.2736-86.6304-64.9216 3.8912-125.1328 35.2256-165.2736 86.016-10.6496 12.0832-27.0336 17.408-42.8032 14.336h-8.6016l-10.8544-3.4816C200.704 277.504 134.144 212.5824 110.1824 128.61440000000005l-42.1888-139.0592c-4.3008-16.7936-0.8192-34.6112 9.6256-48.5376 11.264-14.336 29.2864-21.7088 47.3088-19.8656h777.216c17.408 0.2048 33.792 8.3968 44.4416 22.3232 9.216 13.312 12.0832 30.1056 7.9872 45.8752z m-53.0432-13.5168c-3.072-4.5056-8.192-7.168-13.7216-6.7584H139.264c-5.9392 0-11.4688 3.2768-14.336 8.6016-1.4336 3.8912-1.4336 8.192 0 11.8784L159.744 113.66399999999999c22.3232 66.1504 77.4144 116.1216 145.408 131.6864h17.6128c3.2768 0.2048 6.144-1.4336 7.9872-3.8912 47.3088-50.5856 113.2544-79.6672 182.4768-80.896 71.2704 2.048 138.4448 34.2016 184.7296 88.4736 2.048 2.2528 4.9152 3.6864 7.9872 3.8912h7.3728l10.8544-2.8672c69.0176-14.336 123.904-66.56 141.9264-134.5536l38.2976-125.952c1.024-4.096 0-8.3968-2.8672-11.4688v-2.2528z m0 0"  horiz-adv-x="1024" />

    
    <glyph glyph-name="uncarried" unicode="&#58907;" d="M640.5578-128c-282.75 0-512 229.25-512 512C128.5578 666.75 357.8078 896 640.5578 896c282.75 0 512-229.25 512-512 0-282.75-229.125-512-512-512zM688.5578 656c0 26.5-21.5 48-48 48S592.5578 682.5 592.5578 656v-352c0-26.5 21.5-48 48-48s48 21.5 48 48V656z m-48-496c-26.5 0-48-21.5-48-48s21.5-48 48-48 48 21.5 48 48-21.5 48-48 48z m0 0"  horiz-adv-x="1677" />

    
    <glyph glyph-name="finished" unicode="&#58908;" d="M638.590435 896C355.801193 896 126.590435 666.7892420000001 126.590435 384S355.801193-128 638.590435-128s512 229.210758 512 512-229.210758 512-512 512z m306.574083-396.580929L599.783589 154.038142c-7.761369-7.761369-18.151589-12.142787-29.167726-12.142787s-21.406357 4.256235-29.167726 12.142787c-3.129584 3.129584-204.925183 207.804401-204.925183 207.804401-7.636186 7.636186-11.892421 17.901222-11.892421 28.666992 0 10.890954 4.256235 21.030807 11.892421 28.666993 7.636186 7.636186 17.901222 11.892421 28.666992 11.892421 10.890954 0 21.030807-4.256235 28.666993-11.892421L570.991413 242.042054l315.71247 315.712469c7.761369 7.761369 18.151589 12.142787 29.167726 12.142788s21.406357-4.256235 29.167726-12.142788c8.011736-8.011736 12.017604-18.652323 12.017604-29.167726s-3.880685-21.15599-11.892421-29.167726z"  horiz-adv-x="1675" />

    
    <glyph glyph-name="ongoing" unicode="&#58909;" d="M660.285795 896C377.703473 896 148.223027 666.770626 148.223027 384.062768S377.452401-128 660.285795-128s512.062768 229.229374 512.062768 512.062768c-0.125536 282.707858-229.35491 511.937232-512.062768 511.937232z m293.755057-638.854481H563.49727v396.694863C563.49727 680.328552 585.089522 701.795268 611.452155 701.795268s47.954885-21.592252 47.954886-47.954886v-301.161701h294.508275c26.48817 0 47.703813-21.341179 47.703813-47.703813 0.251073-26.48817-21.090107-47.829349-47.578277-47.829349z"  horiz-adv-x="1670" />

    
    <glyph glyph-name="dian" unicode="&#59372;" d="M512 384m-447.616766 0a438 438 0 1 1 895.233533 0 438 438 0 1 1-895.233533 0Z"  horiz-adv-x="1024" />

    
    <glyph glyph-name="shaixuan" unicode="&#58890;" d="M1093.461333 793.941333c8.021333 8.874667 11.946667 20.48 11.264 32.426667-0.682667 11.946667-5.973333 23.04-15.018666 30.890667-8.362667 7.338667-19.114667 11.434667-30.208 11.434666h-0.341334c-2.389333 0.341333-4.608 0.682667-7.168 0.682667H164.181333c-24.746667 0-44.885333-20.138667-44.885333-44.885333 0-11.776 4.437333-22.698667 12.629333-31.232l308.224-345.941334v-394.069333c0-19.968 13.312-37.717333 32.426667-43.178667l246.784-108.885333c5.632-2.56 11.605333-3.754667 18.090667-3.754667 17.749333 0 33.962667 10.581333 41.130666 26.794667 2.901333 6.485333 4.096 13.312 3.754667 20.309333V444.757333L1093.461333 793.941333zM503.637333 510.976L264.362667 779.434667h695.808L719.872 509.44l-216.234667 1.536zM692.565333 419.84v-408.576l-162.816 71.68v337.92l162.816-1.024zM1245.013333-18.261333c0-24.746667-20.138667-44.885333-44.885333-44.885334H906.24c-24.746667 0-44.885333 20.138667-44.885333 44.885334s20.138667 44.885333 44.885333 44.885333h293.888c24.746667 0 44.885333-20.138667 44.885333-44.885333zM1245.013333 168.96c0-24.746667-20.138667-44.885333-44.885333-44.885333H906.24c-24.746667 0-44.885333 20.138667-44.885333 44.885333s20.138667 44.885333 44.885333 44.885333h293.888c24.746667 0 44.885333-20.138667 44.885333-44.885333zM1245.013333 356.010667c0-24.746667-20.138667-44.885333-44.885333-44.885334H906.24c-24.746667 0-44.885333 20.138667-44.885333 44.885334s20.138667 44.885333 44.885333 44.885333h293.888c24.746667 0 44.885333-20.138667 44.885333-44.885333z"  horiz-adv-x="1365" />

    
    <glyph glyph-name="phonemonitor" unicode="&#58891;" d="M821.248 47.10400000000004c0-16.7936-3.2768-32.3584-10.0352-46.8992-6.7584-14.5408-15.9744-27.2384-27.648-38.2976-11.6736-11.0592-25.6-19.8656-41.3696-26.2144-15.7696-6.3488-32.768-9.6256-50.9952-9.6256H333.2096c-18.2272 0-35.2256 3.2768-50.9952 9.6256-15.7696 6.3488-29.4912 15.1552-41.3696 26.2144-11.6736 11.0592-21.0944 23.9616-27.648 38.2976-6.7584 14.5408-10.0352 30.1056-10.0352 46.8992V722.7392c0 16.7936 3.2768 32.5632 10.0352 47.3088 6.7584 14.7456 15.9744 27.648 27.648 38.912 11.6736 11.0592 25.6 19.8656 41.3696 26.2144 15.7696 6.3488 32.768 9.6256 50.9952 9.6256h357.9904c18.2272 0 35.2256-3.2768 50.9952-9.6256 15.7696-6.3488 29.4912-15.1552 41.3696-26.2144 11.6736-11.0592 21.0944-23.9616 27.648-38.912 6.7584-14.7456 10.0352-30.5152 10.0352-47.3088v-675.6352z m-81.5104 627.3024H283.8528v-577.7408h455.68V674.4064zM511.7952 68.40319999999997c-14.1312 0-26.4192-5.12-36.864-15.1552s-15.5648-22.528-15.5648-37.2736c0-14.1312 5.12-26.4192 15.5648-36.864s22.7328-15.5648 36.864-15.5648c14.7456 0 27.2384 5.12 37.2736 15.5648 10.0352 10.4448 15.1552 22.7328 15.1552 36.864 0 14.7456-5.12 27.2384-15.1552 37.2736-10.0352 10.0352-22.528 15.1552-37.2736 15.1552z m80.6912 691.6096c0 5.3248-1.6384 9.6256-5.12 12.6976-3.2768 3.072-6.9632 4.5056-11.0592 4.5056h-128c-3.2768 0-6.9632-1.4336-10.6496-4.5056-3.6864-3.072-5.5296-7.168-5.5296-12.6976 0-5.3248 1.6384-9.6256 5.12-12.6976 3.2768-3.072 6.9632-4.5056 11.0592-4.5056h128c4.096 0 7.7824 1.4336 11.0592 4.5056 3.4816 3.2768 5.12 7.3728 5.12 12.6976z m0 0"  horiz-adv-x="1024" />

    
    <glyph glyph-name="watchmonitor" unicode="&#58892;" d="M514.048 566.6816c-99.9424 0-181.0432-81.1008-181.0432-181.0432s81.1008-181.0432 181.0432-181.0432c99.9424 0 181.0432 81.1008 181.0432 181.0432s-81.1008 181.0432-181.0432 181.0432z m0-339.5584c-87.4496 0-158.5152 71.0656-158.5152 158.5152s71.0656 158.5152 158.5152 158.5152 158.5152-70.8608 158.5152-158.5152c0-87.4496-71.0656-158.5152-158.5152-158.5152zM828.2112 385.6384c0 99.9424-46.6944 188.8256-119.6032 246.3744l-28.0576 168.7552C675.2256 833.1264 647.168 856.8832 614.4 856.8832h-200.704c-32.768 0-60.8256-23.7568-66.1504-56.1152L319.488 632.0128c-72.9088-57.5488-119.6032-146.432-119.6032-246.3744s46.6944-189.0304 119.6032-246.3744l28.0576-168.7552c5.3248-32.3584 33.3824-56.1152 66.1504-56.1152h200.4992c32.768 0 60.8256 23.7568 66.1504 56.1152l28.0576 168.7552c73.1136 57.5488 119.808 146.432 119.808 246.3744z m-549.888 0c0 130.2528 105.472 235.7248 235.7248 235.7248 130.4576 0 235.7248-105.0624 235.7248-235.7248 0-130.2528-105.472-235.7248-235.7248-235.7248-130.2528 0-235.7248 105.472-235.7248 235.7248z m0 0"  horiz-adv-x="1024" />

    
    <glyph glyph-name="monitor" unicode="&#58895;" d="M925.696 402.6368L498.0736 830.2592C464.896 863.232 411.2384 863.232 378.2656 830.2592L149.7088 601.9072C116.736 568.7296 116.736 515.072 149.7088 481.8944L577.3312 54.27200000000005c33.1776-33.1776 86.8352-33.1776 119.808 0l43.4176 43.4176 47.9232-47.9232c12.4928-12.4928 32.5632-12.4928 45.056 0l95.6416 95.6416c12.4928 12.4928 12.4928 32.5632 0 45.056L881.4592 238.59199999999998l44.2368 44.2368c32.9728 32.9728 32.9728 86.8352 0 119.808zM319.488 572.4159999999999l88.064 88.064c16.7936 16.7936 44.032 16.7936 61.0304 0l287.3344-287.3344c16.7936-16.7936 16.7936-44.032 0-61.0304l-88.2688-88.064c-16.7936-16.7936-44.032-16.7936-61.0304 0L319.488 511.3856c-16.7936 16.7936-16.7936 44.032 0 61.0304zM184.7296 181.6576H129.8432V397.9264c0 16.5888-13.312 29.9008-29.9008 29.9008h-10.6496c-16.5888 0-29.9008-13.312-29.9008-29.9008v-467.968c0-16.5888 13.312-29.9008 29.9008-29.9008h10.6496c16.5888 0 29.9008 13.312 29.9008 29.9008v110.7968h73.728c46.08 0 83.968 36.2496 86.016 82.3296l7.5776 169.5744L193.9456 396.288l-9.216-214.6304z m0 0M411.4432 603.7504c0-19.456 15.7696-35.2256 35.2256-35.2256s35.2256 15.7696 35.2256 35.2256c0 12.4928-6.7584 24.1664-17.6128 30.5152-10.8544 6.3488-24.3712 6.3488-35.2256 0-11.0592-6.3488-17.6128-17.8176-17.6128-30.5152z m0 0"  horiz-adv-x="1024" />

    
    <glyph glyph-name="map-move" unicode="&#59373;" d="M889.56665231 502.859969h-2.532303c-19.150541 0-34.977434-5.539413-50.171252-14.87728-13.29459 38.775889-47.005873 66.631221-90.52983 66.631221-19.150541 0-37.509737-5.539413-52.703555-14.877279-13.29459 38.775889-47.005873 66.631221-90.52983 66.631221-16.934776 0-32.761669-4.273261-46.689335-11.711901v99.709428c0 54.286244-40.991654 98.285008-95.752705 98.285007-54.602782 0-98.918083-43.998764-98.918084-98.285007v-381.42813l-60.142194 59.825657c-38.61762 38.301082-106.989799 32.919938-139.909738 0-32.919938-32.919938-54.444513-99.076352-7.438639-146.240495l276.337558-274.5966c5.697682-5.697682 12.028439-10.44575 18.517465-14.402473 50.329521-41.149923 108.097682-65.523338 230.281298-65.523338 279.02813 0 304.825966 150.513756 304.825966 336.163215V404.574961c0 54.286244-40.04204 98.285008-94.644822 98.285008z m42.574343-294.855023c0-157.161051-0.791345-284.409274-252.755487-284.409274-106.673261 0-170.772179 23.74034-219.360742 72.012365L198.40621931 255.64389500000004c-23.107264 23.107264-17.251314 52.703555 1.582689 71.695827 18.992272 18.992272 53.653168 19.625348 72.012365 1.42442 0 0 45.897991-45.581453 85.465224-84.990417 29.912828-29.75456 56.185471-55.868934 56.185472-55.868934V683.76136c0 25.639567 21.049768 46.531066 46.847604 46.531067 25.956105 0 43.682226-20.891499 43.682226-46.531067v-315.429984h0.474806c-0.316538-1.740958-0.474807-3.323648-0.474806-5.222875 0-14.244204 11.711901-25.797836 26.114374-25.797836s26.114374 11.553632 26.114374 25.797836c0 1.740958-0.158269 3.481917-0.474807 5.222875h0.474807v129.305718c0 25.639567 18.675734 46.531066 44.631839 46.531067 0 0 45.897991 0.633076 45.897991-46.531067v-170.61391h0.474807c-0.316538-1.740958-0.474807-3.323648-0.474807-5.222875 0-14.244204 11.711901-25.797836 26.114374-25.797836s26.114374 11.553632 26.114374 25.797836c0 1.740958-0.158269 3.481917-0.474807 5.222875h0.474807v119.018238c0 25.639567 18.359196 46.531066 44.315301 46.531066 0 0 46.847604-2.848841 46.847605-46.531066v-150.038949h0.474806c-0.316538-1.740958-0.474807-3.323648-0.474806-5.222875 0-14.244204 11.711901-25.797836 26.114374-25.797836s25.323029 11.553632 25.323029 25.797836c0 1.740958-0.158269 3.481917-0.474807 5.222875h0.474807v102.4c0 25.639567 19.30881 46.531066 45.264915 46.531066 0 0 45.423184 1.899227 45.423184-46.531066v-190.397527zM322.96387031 547.650077V634.539722c-8.229985 18.517465-12.978053 39.092427-12.978053 60.617001 0 82.299845 66.78949 149.089335 149.089336 149.089336S608.16448831 777.456569 608.16448831 695.156723c0-11.237094-1.266151-22.157651-3.640185-32.761669 18.834003-0.791345 35.61051-8.546522 47.955486-21.049768 4.748068 17.093045 7.596909 34.977434 7.596909 53.653168 0 110.946522-90.055023 201.001546-201.001545 201.001546s-201.001546-89.896754-201.001546-201.001546c0-58.242968 25.16476-110.629985 64.890263-147.348377z m0 0"  horiz-adv-x="1109" />

    
    <glyph glyph-name="map-draw" unicode="&#59374;" d="M510.959 825.6659999999999c-243.334 0-440.596-197.245-440.596-440.597 0-243.319 197.264-440.596 440.596-440.596 243.317 0 440.597 197.275 440.597 440.596-0.001 243.353-197.28 440.597-440.597 440.597v0zM510.959 12.17100000000005c-205.936 0-372.902 166.943-372.902 372.897 0 205.961 166.965 372.902 372.902 372.902 205.959 0 372.901-166.943 372.901-372.902 0-205.953-166.943-372.897-372.901-372.897v0zM510.959 12.17100000000005z"  horiz-adv-x="1024" />

    
    <glyph glyph-name="monitorbg" unicode="&#59375;" d="M911.9744 459.5712h11.0592V486.4H892.928v-201.9328h30.1056v26.8288h-11.0592v148.2752zM585.728-14.745599999999968v-11.0592h26.8288v30.1056h-201.9328v-30.1056h26.8288v11.0592H585.728zM111.4112 311.29600000000005H100.352v-26.8288h30.1056V486.4H100.352v-26.8288h11.0592v-148.2752zM437.4528 785.8176v11.0592h-26.8288v-30.1056h201.9328V796.8768H585.728v-11.0592h-148.2752z m447.488-280.576h17.6128v31.5392h23.552v70.2464h-18.432V705.1264l30.9248 30.9248V775.7824h4.7104v-132.7104l-10.6496-10.6496h-5.5296V700.4159999999999h-3.6864l-10.8544-10.8544v-77.824h18.432v-156.672h-14.336v-138.8544h14.336v-156.672h-18.432v-77.824l10.8544-10.8544h3.6864v67.9936h5.5296l10.6496-10.6496v-132.7104h-4.7104v39.7312l-30.9248 30.9248v98.304h18.432v70.2464h-23.552v31.5392h-17.6128V505.2416zM937.984 392.6016l12.4928 12.4928V610.7136l14.1312 14.1312h4.096v-478.6176h-4.096l-14.1312 14.1312V365.97760000000005l-12.4928 12.4928v14.1312z m6.9632-7.168l-2.2528 2.2528v-4.7104l2.2528 2.4576zM631.3984 12.083200000000033v-17.6128h31.5392v-23.552H733.184v18.432h98.0992l30.9248-30.9248h39.7312v-4.7104h-132.7104l-10.6496 10.6496v5.5296h67.9936v3.6864l-10.8544 11.0592h-77.824v-18.432h-156.672v14.336H442.368v-14.336h-156.672v18.432h-77.824l-10.8544-11.0592v-3.6864h67.9936v-5.5296l-10.6496-10.6496h-133.12v4.7104h39.7312l30.9248 30.9248h98.0992v-18.432H360.448v23.552h31.5392v17.6128h239.4112zM518.7584-40.755199999999945l12.4928-12.4928h205.6192l14.1312-14.1312v-4.096H272.384v4.096l14.1312 14.1312h205.6192l12.4928 12.4928h14.1312z m-7.168-7.168l2.2528 2.2528h-4.7104l2.4576-2.2528zM138.24 265.62559999999996H120.832v-31.5392H97.0752v-70.2464h18.432v-98.304l-30.9248-30.9248V-5.1200000000000045H79.872v132.7104l10.6496 10.6496H96.256v-67.9936h3.6864l10.8544 10.8544v77.824h-18.432v156.672h14.336v138.8544h-14.336v156.672h18.432v77.824l-10.8544 10.8544H96.256V631.808h-5.5296l-10.6496 10.6496V775.7824h4.7104v-39.7312l30.9248-30.9248v-98.0992h-18.432v-70.2464H120.832v-31.5392h17.6128v-239.616zM85.4016 378.47040000000004l-12.4928-12.4928v-205.6192l-14.1312-14.1312h-4.096V624.8448000000001h4.096l14.1312-14.1312v-205.6192l12.4928-12.4928v-14.1312z m-7.168 6.9632l2.2528-2.2528v4.7104l-2.2528-2.4576zM391.7824 758.784v17.6128H360.448V799.9488h-70.2464v-18.432h-98.304L160.9728 812.4416H121.2416v4.7104H253.952l10.6496-10.6496v-5.5296H196.608v-3.6864l10.8544-10.8544h77.824v18.432h156.672v-14.336h138.8544v14.336h156.672v-18.432h77.824l10.8544 10.8544v3.6864h-67.9936v5.5296l10.6496 10.6496h132.7104v-4.7104H862.208l-30.9248-30.9248H733.184v18.432h-70.2464v-23.552h-31.5392V758.784h-239.616zM504.6272 811.8272l-12.4928 12.4928H286.5152l-14.1312 14.1312v4.096h478.6176v-4.096l-14.1312-14.1312H531.0464l-12.4928-12.4928h-13.9264z m6.9632 6.9632l-2.2528-2.2528h4.7104l-2.4576 2.2528zM70.4512 826.7776h75.1616l6.7584-6.7584v-3.4816H109.9776v-2.2528l6.7584-6.7584h48.5376v11.4688h97.6896V809.984H450.56v4.9152h-81.7152v2.2528l-6.3488 6.3488h-60.8256l-7.7824 7.7824H165.888l-8.8064 8.8064V842.752h327.0656v-2.8672h-106.7008v-7.7824h-66.9696l-5.5296-5.5296h142.9504v9.4208h128V826.3679999999999H718.848l-5.5296 5.5296h-66.9696v7.7824h-106.7008v2.8672H866.304v-2.6624l-8.8064-8.8064h-128.2048l-7.7824-7.7824h-60.8256l-6.3488-6.3488v-2.2528h-81.7152V809.984h187.5968v8.8064H858.112v-11.4688h48.5376L913.408 814.08v2.2528h-42.3936v3.4816l6.7584 6.7584h75.1616v-75.1616l-6.7584-6.7584h-3.4816V787.2512h-2.2528l-6.7584-6.7584v-48.5376h11.4688v-97.6896h-8.8064v-187.5968h4.9152v81.7152h2.2528l6.3488 6.3488v60.8256l7.7824 7.7824V731.136l8.8064 8.8064h2.6624v-327.0656h-2.8672v106.7008H958.464V586.752l-5.5296 5.5296V449.536h9.4208v-128h-9.4208v-142.9504l5.5296 5.5296v66.9696h7.7824v106.7008h2.8672v-327.0656h-2.6624l-8.8064 8.8064v128.2048l-7.7824 7.7824V236.54399999999998l-6.3488 6.3488h-2.2528V324.60799999999995h-4.9152v-187.5968h8.8064v-97.6896h-11.4688V-9.216000000000008l6.7584-6.7584h2.2528v42.3936h3.4816l6.7584-6.7584v-75.1616h-75.1616l-6.7584 6.7584v3.4816H913.408v2.2528l-6.7584 6.7584H858.112v-11.4688h-97.6896v8.8064h-187.5968v-4.9152h81.7152v-2.048l6.3488-6.3488h60.8256l7.7824-7.7824h128.2048l8.8064-8.8064v-2.6624H539.2384V-68.60799999999995h106.7008v7.7824h66.9696l5.5296 5.5296H575.488v-9.4208h-128v9.4208h-142.9504l5.5296-5.5296h66.9696v-7.7824h106.7008v-2.8672H157.0816v2.6624l8.8064 8.8064h128.2048l7.7824 7.7824h60.8256l6.3488 6.3488v2.048H450.56v4.9152h-187.5968v-8.8064H165.2736v11.4688H116.736l-6.7584-6.7584v-2.2528h42.3936v-3.4816l-6.7584-6.7584H70.4512V19.456000000000017l6.7584 6.7584h3.4816v-42.3936h2.2528l6.7584 6.7584v48.5376h-11.4688v97.6896h8.8064v187.5968h-4.9152V242.688H79.872l-6.144-6.144v-60.8256l-7.7824-7.7824v-128.2048l-8.8064-8.8064h-2.6624V357.78560000000004H57.344v-106.7008h7.7824v-66.9696l5.5296-5.5296v142.9504H61.44V449.536h9.4208v142.9504l-5.5296-5.5296v-66.9696h-7.7824v-106.7008h-2.8672V739.9424H57.344l8.8064-8.8064v-128.2048l7.7824-7.7824v-60.8256l6.3488-6.3488h2.2528v-81.7152h4.9152V633.856h-8.8064V731.7504H90.112V780.288l-6.7584 6.7584h-2.2528v-42.3936h-3.4816l-6.7584 6.7584V826.7776z m382.976-5.7344v-13.9264H260.096V814.08h-16.7936v-18.8416h265.0112V816.5376h6.7584v-21.2992h265.0112V814.08h-16.7936v-6.9632h-193.536v13.9264h-116.3264zM76.1856 327.2704H90.112v-193.536h-6.9632v-16.7936h18.8416V382.1568H80.6912v6.7584h21.2992V653.7216h-18.8416v-16.7936H90.112V443.392h-13.9264v-116.1216z m493.568-377.4464v13.9264h193.536v-6.9632h16.7936v18.8416H515.072v-21.2992h-6.7584v21.2992H243.3024v-18.8416h16.7936v6.9632h193.536v-13.9264h116.1216z m377.4464 493.7728h-13.9264v193.536h6.9632v16.7936h-18.8416v-265.0112h21.2992v-6.7584h-21.2992v-265.0112h18.8416v16.7936h-6.9632v193.536h13.9264v116.1216zM231.6288 790.3232v11.0592h-19.6608V816.128H168.1408v-11.4688H106.9056l-19.2512 19.2512h-14.336v-14.336l19.2512-19.2512v-61.2352h-11.4688V685.056h14.7456v-19.6608h11.0592V105.47199999999998h-11.0592v-19.6608h-14.7456V41.98400000000004h11.4688v-61.2352l-19.2512-19.2512v-14.336h14.336l19.2512 19.2512h61.2352v-11.4688h43.8272v14.7456h19.6608V-19.456000000000017h560.128v-11.0592h19.6608v-14.7456h43.8272V-33.79200000000003h61.2352l19.2512-19.2512h14.336v14.336l-19.2512 19.2512v61.44h11.4688v43.8272h-14.7456V105.47199999999998h-11.0592V665.6h11.0592V685.056h14.7456V728.8832h-11.4688V790.1184l19.2512 19.2512v14.336h-14.336l-19.2512-19.2512h-61.2352v11.4688h-43.8272v-14.7456h-19.6608v-11.0592H231.6288z"  horiz-adv-x="1024" />

    


  </font>
</defs>
</svg>
